<svg xmlns="http://www.w3.org/2000/svg" viewBox="0 0 100 100" role="img" aria-label="GLaDOS aperture mark"><path d="M 2.0,50.0 a 48.0,48.0 0 1,0 96.0,0 a 48.0,48.0 0 1,0 -96.0,0 M 72.08,60.63 L 55.45,73.89 L 34.72,69.16 L 25.49,50.00 L 34.72,30.84 L 55.45,26.11 L 72.08,39.37 Z M 73.76,50.00 L 70.40,50.00 L 70.40,95.18 Z M 73.76,50.00 L 70.40,95.18 L 73.76,95.18 Z M 64.81,68.58 L 62.72,65.95 L 27.40,94.12 Z M 64.81,68.58 L 27.40,94.12 L 29.49,96.74 Z M 44.71,73.16 L 45.46,69.89 L 1.42,59.84 Z M 44.71,73.16 L 1.42,59.84 L 0.67,63.11 Z M 28.59,60.31 L 31.62,58.85 L 12.02,18.15 Z M 28.59,60.31 L 12.02,18.15 L 8.99,19.61 Z M 28.59,39.69 L 31.62,41.15 L 51.22,0.45 Z M 28.59,39.69 L 51.22,0.45 L 48.19,-1.01 Z M 44.71,26.84 L 45.46,30.11 L 89.51,20.06 Z M 44.71,26.84 L 89.51,20.06 L 88.76,16.78 Z M 64.81,31.42 L 62.72,34.05 L 98.04,62.22 Z M 64.81,31.42 L 98.04,62.22 L 100.14,59.59 Z" fill="#F28C1E" fill-rule="evenodd"/></svg>